<svg width="18" height="19" viewBox="0 0 18 19" fill="none" xmlns="http://www.w3.org/2000/svg">
<path d="M9.9 5C9.9 4.50294 9.49706 4.1 9 4.1C8.50294 4.1 8.1 4.50294 8.1 5V9.5C8.1 9.99706 8.50294 10.4 9 10.4H12.6C13.0971 10.4 13.5 9.99706 13.5 9.5C13.5 9.00294 13.0971 8.6 12.6 8.6H9.9V5Z" fill="#A4A4A4"/>
<path fill-rule="evenodd" clip-rule="evenodd" d="M18 9.5C18 14.4706 13.9706 18.5 9 18.5C4.02944 18.5 0 14.4706 0 9.5C0 4.52944 4.02944 0.5 9 0.5C13.9706 0.5 18 4.52944 18 9.5ZM16.2 9.5C16.2 13.4764 12.9764 16.7 9 16.7C5.02355 16.7 1.8 13.4764 1.8 9.5C1.8 5.52355 5.02355 2.3 9 2.3C12.9764 2.3 16.2 5.52355 16.2 9.5Z" fill="#A4A4A4"/>
</svg>
