<svg width="53" height="76" viewBox="0 0 53 76" fill="none" xmlns="http://www.w3.org/2000/svg">
<path d="M31.3711 70.0221C39.0237 60.2091 53 40.3983 53 26.6C53 11.9092 41.1355 0 26.5 0C11.8645 0 0 11.9092 0 26.6C0 40.3983 13.9763 60.2091 21.6289 70.0221V70.0221C24.1363 73.2374 28.8637 73.2374 31.3711 70.0221V70.0221Z" fill="#181818"/>
<path d="M19.7051 13.4688L22.166 20.0078L24.6211 13.4688H26.5371V22H25.0605V19.1875L25.207 15.4258L22.6875 22H21.627L19.1133 15.4316L19.2598 19.1875V22H17.7832V13.4688H19.7051ZM29.6895 17.6758H31.084C31.6035 17.6758 32.0566 17.7656 32.4434 17.9453C32.8301 18.125 33.123 18.377 33.3223 18.7012C33.5254 19.0254 33.627 19.4023 33.627 19.832C33.627 20.4844 33.3965 21.0078 32.9355 21.4023C32.4746 21.7969 31.8613 21.9961 31.0957 22H28.2656V15.6602H29.6895V17.6758ZM36.1055 22H34.6816V15.6602H36.1055V22ZM29.6895 18.8184V20.8633H31.0781C31.4258 20.8633 31.6992 20.7773 31.8984 20.6055C32.1016 20.4297 32.2031 20.1816 32.2031 19.8613C32.2031 19.541 32.1035 19.2891 31.9043 19.1055C31.709 18.918 31.4434 18.8223 31.1074 18.8184H29.6895ZM16.0781 31.3945C16.0781 31.6758 15.9922 31.9355 15.8203 32.1738C15.6523 32.4082 15.4141 32.5957 15.1055 32.7363C15.832 32.9902 16.1953 33.4805 16.1953 34.207C16.1953 34.7891 15.959 35.2539 15.4863 35.6016C15.0137 35.9453 14.3809 36.1172 13.5879 36.1172C13.1035 36.1172 12.6621 36.0371 12.2637 35.877C11.8652 35.7129 11.5547 35.4824 11.332 35.1855C11.1094 34.8848 10.998 34.5293 10.998 34.1191H12.416C12.416 34.377 12.5312 34.5938 12.7617 34.7695C12.9922 34.9414 13.2832 35.0273 13.6348 35.0273C13.9824 35.0273 14.2578 34.9473 14.4609 34.7871C14.668 34.623 14.7715 34.4102 14.7715 34.1484C14.7715 33.8398 14.6816 33.6172 14.502 33.4805C14.3223 33.3438 14.0449 33.2754 13.6699 33.2754H12.6504V32.25H13.7051C14.3418 32.2422 14.6602 31.9805 14.6602 31.4648C14.6602 31.207 14.5684 31.0059 14.3848 30.8613C14.2012 30.7168 13.9492 30.6445 13.6289 30.6445C13.3164 30.6445 13.0527 30.7227 12.8379 30.8789C12.623 31.0312 12.5156 31.2246 12.5156 31.459H11.0977C11.0977 30.9004 11.332 30.4434 11.8008 30.0879C12.2695 29.7285 12.8652 29.5488 13.5879 29.5488C14.373 29.5488 14.9844 29.709 15.4219 30.0293C15.8594 30.3496 16.0781 30.8047 16.0781 31.3945ZM17.4316 34.8633C17.8262 34.4219 18.0898 34.0039 18.2227 33.6094C18.3594 33.2109 18.4414 32.7031 18.4688 32.0859L18.5508 29.6602H22.9512V34.8633H23.8301V37.8867H22.4121V36H18.3457V37.8867H16.9043L16.9102 34.8633H17.4316ZM19.1016 34.8633H21.5332V30.8848H19.9336L19.8926 32.0977C19.8379 33.2617 19.5742 34.1836 19.1016 34.8633ZM27.6387 36.1172C26.7363 36.1172 26.0039 35.834 25.4414 35.2676C24.8828 34.6973 24.6035 33.9395 24.6035 32.9941V32.8184C24.6035 32.1855 24.7246 31.6211 24.9668 31.125C25.2129 30.625 25.5566 30.2363 25.998 29.959C26.4395 29.6816 26.9316 29.543 27.4746 29.543C28.3379 29.543 29.0039 29.8184 29.4727 30.3691C29.9453 30.9199 30.1816 31.6992 30.1816 32.707V33.2812H26.0391C26.082 33.8047 26.2559 34.2188 26.5605 34.5234C26.8691 34.8281 27.2559 34.9805 27.7207 34.9805C28.373 34.9805 28.9043 34.7168 29.3145 34.1895L30.082 34.9219C29.8281 35.3008 29.4883 35.5957 29.0625 35.8066C28.6406 36.0137 28.166 36.1172 27.6387 36.1172ZM27.4688 30.6855C27.0781 30.6855 26.7617 30.8223 26.5195 31.0957C26.2812 31.3691 26.1289 31.75 26.0625 32.2383H28.7754V32.1328C28.7441 31.6562 28.6172 31.2969 28.3945 31.0547C28.1719 30.8086 27.8633 30.6855 27.4688 30.6855ZM33.8965 34.9805C34.252 34.9805 34.5469 34.877 34.7812 34.6699C35.0156 34.4629 35.1406 34.207 35.1562 33.9023H36.498C36.4824 34.2969 36.3594 34.666 36.1289 35.0098C35.8984 35.3496 35.5859 35.6191 35.1914 35.8184C34.7969 36.0176 34.3711 36.1172 33.9141 36.1172C33.0273 36.1172 32.3242 35.8301 31.8047 35.2559C31.2852 34.6816 31.0254 33.8887 31.0254 32.877V32.7305C31.0254 31.7656 31.2832 30.9941 31.7988 30.416C32.3145 29.834 33.0176 29.543 33.9082 29.543C34.6621 29.543 35.2754 29.7637 35.748 30.2051C36.2246 30.6426 36.4746 31.2188 36.498 31.9336H35.1562C35.1406 31.5703 35.0156 31.2715 34.7812 31.0371C34.5508 30.8027 34.2559 30.6855 33.8965 30.6855C33.4355 30.6855 33.0801 30.8535 32.8301 31.1895C32.5801 31.5215 32.4531 32.0273 32.4492 32.707V32.9355C32.4492 33.623 32.5723 34.1367 32.8184 34.4766C33.0684 34.8125 33.4277 34.9805 33.8965 34.9805ZM39.1055 31.6758H40.5C41.0195 31.6758 41.4727 31.7656 41.8594 31.9453C42.2461 32.125 42.5391 32.377 42.7383 32.7012C42.9414 33.0254 43.043 33.4023 43.043 33.832C43.043 34.4844 42.8125 35.0078 42.3516 35.4023C41.8906 35.7969 41.2773 35.9961 40.5117 36H37.6816V29.6602H39.1055V31.6758ZM39.1055 32.8184V34.8633H40.4941C40.8418 34.8633 41.1152 34.7773 41.3145 34.6055C41.5176 34.4297 41.6191 34.1816 41.6191 33.8613C41.6191 33.541 41.5195 33.2891 41.3203 33.1055C41.125 32.918 40.8594 32.8223 40.5234 32.8184H39.1055Z" fill="white"/>
</svg>
