<svg width="18" height="18" viewBox="0 0 18 18" fill="none" xmlns="http://www.w3.org/2000/svg">
<path d="M2.57031 2C2.57031 0.89543 3.5297 0 4.71317 0H13.2846C14.4681 0 15.4275 0.89543 15.4275 2V16C15.4275 17.1046 14.4681 18 13.2846 18H4.71317C3.5297 18 2.57031 17.1046 2.57031 16V2ZM13.2846 2H4.71317V16H13.2846V2Z" fill="#A4A4A4"/>
<path d="M10.0703 14C10.0703 14.5523 9.59062 15 8.99888 15C8.40715 15 7.92746 14.5523 7.92746 14C7.92746 13.4477 8.40715 13 8.99888 13C9.59062 13 10.0703 13.4477 10.0703 14Z" fill="#A4A4A4"/>
</svg>
