<svg width="12" height="16" viewBox="0 0 12 16" fill="none" xmlns="http://www.w3.org/2000/svg">
<path fill-rule="evenodd" clip-rule="evenodd" d="M8.28604 5.6C8.28604 6.92548 7.26269 8 6.00033 8C4.73796 8 3.71461 6.92548 3.71461 5.6C3.71461 4.27452 4.73796 3.2 6.00033 3.2C7.26269 3.2 8.28604 4.27452 8.28604 5.6ZM6.76223 5.6C6.76223 6.04183 6.42111 6.4 6.00033 6.4C5.57954 6.4 5.23842 6.04183 5.23842 5.6C5.23842 5.15817 5.57954 4.8 6.00033 4.8C6.42111 4.8 6.76223 5.15817 6.76223 5.6Z" fill="white"/>
<path fill-rule="evenodd" clip-rule="evenodd" d="M11.3337 5.6C11.3337 8.50491 8.52082 12.6756 6.98067 14.7415C6.40007 15.5203 6.17054 16 6.00024 16C5.82995 16 5.60059 15.5203 5.01998 14.7415C3.47983 12.6756 0.666992 8.50491 0.666992 5.6C0.666992 2.50721 3.05481 0 6.00033 0C8.94585 0 11.3337 2.50721 11.3337 5.6ZM9.80985 5.6C9.80985 6.26696 9.57646 7.1731 9.11157 8.25396C8.65795 9.30864 8.03944 10.404 7.39911 11.4125C6.91038 12.1822 6.41991 12.8843 6.00033 13.4579C5.58075 12.8843 5.09027 12.1822 4.60155 11.4125C3.96121 10.404 3.3427 9.30864 2.88908 8.25396C2.42419 7.1731 2.1908 6.26696 2.1908 5.6C2.1908 3.39086 3.89638 1.6 6.00033 1.6C8.10427 1.6 9.80985 3.39086 9.80985 5.6Z" fill="white"/>
</svg>
