<svg width="14" height="12" viewBox="0 0 14 12" fill="none" xmlns="http://www.w3.org/2000/svg">
<path fill-rule="evenodd" clip-rule="evenodd" d="M1.43189 4.87331C4.93014 3.34918 7.26285 2.34438 8.43002 1.85891C11.7626 0.472802 12.455 0.232019 12.9064 0.224069C13.0056 0.22232 13.2276 0.246922 13.3714 0.363585C13.4928 0.462093 13.5262 0.595163 13.5422 0.688559C13.5581 0.781956 13.578 0.994716 13.5622 1.16096C13.3816 3.05844 12.6002 7.66313 12.2027 9.78835C12.0345 10.6876 11.7032 10.9891 11.3826 11.0186C10.6857 11.0828 10.1566 10.5581 9.48161 10.1157C8.42546 9.42334 7.82879 8.99236 6.80361 8.31678C5.61884 7.53603 6.38688 7.10692 7.06208 6.40563C7.23878 6.2221 10.3092 3.42934 10.3686 3.17599C10.376 3.14431 10.3829 3.0262 10.3128 2.96383C10.2426 2.90147 10.139 2.92279 10.0643 2.93976C9.95838 2.9638 8.27116 4.07899 5.00264 6.28533C4.52373 6.61419 4.08994 6.77442 3.70129 6.76602C3.27283 6.75677 2.44864 6.52376 1.83594 6.3246C1.08444 6.08032 0.487158 5.95116 0.539168 5.53629C0.566258 5.3202 0.863833 5.09921 1.43189 4.87331Z" fill="white"/>
</svg>
