<svg width="17" height="10" viewBox="0 0 17 10" fill="none" xmlns="http://www.w3.org/2000/svg">
<path fill-rule="evenodd" clip-rule="evenodd" d="M8.54519 9.2631H9.48704C9.48704 9.2631 9.77154 9.23186 9.91679 9.07528C10.0505 8.93153 10.0462 8.66158 10.0462 8.66158C10.0462 8.66158 10.0278 7.39779 10.6144 7.21169C11.1926 7.02836 11.935 8.43312 12.722 8.97325C13.3171 9.38203 13.7693 9.2924 13.7693 9.2924L15.8736 9.2631C15.8736 9.2631 16.9744 9.19528 16.4524 8.3298C16.4096 8.259 16.1485 7.68956 14.8879 6.51947C13.5685 5.29483 13.7452 5.49291 15.3345 3.37454C16.3025 2.08445 16.6894 1.29682 16.5686 0.959486C16.4533 0.638191 15.7414 0.723114 15.7414 0.723114L13.3721 0.737874C13.3721 0.737874 13.1965 0.713916 13.0662 0.79178C12.9389 0.868146 12.857 1.04612 12.857 1.04612C12.857 1.04612 12.482 2.04444 11.9819 2.89346C10.9269 4.68497 10.505 4.77951 10.3326 4.66828C9.93155 4.40902 10.0317 3.62675 10.0317 3.07101C10.0317 1.3349 10.295 0.611025 9.51891 0.423639C9.26136 0.361391 9.07184 0.32032 8.41321 0.313689C7.56783 0.304918 6.8523 0.316255 6.44715 0.514765C6.17762 0.646748 5.9697 0.940876 6.09633 0.957775C6.25291 0.978738 6.60758 1.05339 6.79561 1.30945C7.0384 1.63972 7.02984 2.38157 7.02984 2.38157C7.02984 2.38157 7.16931 4.42528 6.70405 4.67919C6.38469 4.85331 5.94659 4.49779 5.00603 2.8725C4.52408 2.03995 4.16022 1.11971 4.16022 1.11971C4.16022 1.11971 4.09006 0.947721 3.96492 0.855739C3.81304 0.744291 3.60084 0.708783 3.60084 0.708783L1.34942 0.723542C1.34942 0.723542 1.01144 0.732955 0.887376 0.879912C0.776998 1.01061 0.878606 1.281 0.878606 1.281C0.878606 1.281 2.64124 5.40478 4.63703 7.48292C6.46704 9.38823 8.54519 9.2631 8.54519 9.2631Z" fill="white"/>
</svg>
