<svg width="12" height="12" viewBox="0 0 12 12" fill="none" xmlns="http://www.w3.org/2000/svg">
<path d="M10.6505 8.42814C10.3087 8.15302 9.94318 7.90556 9.58354 7.65329C8.86554 7.14924 8.20947 7.1099 7.67394 7.92079C7.37319 8.37611 6.95263 8.39616 6.51203 8.19617C5.29886 7.64618 4.36208 6.79848 3.81311 5.56526C3.57047 5.01958 3.57352 4.53051 4.14153 4.14448C4.44228 3.94042 4.74532 3.69905 4.72121 3.25287C4.68949 2.67141 3.27758 0.728299 2.71998 0.523228C2.48928 0.438457 2.25959 0.443788 2.02508 0.522974C0.717743 0.962559 0.176126 2.03741 0.694897 3.31048C2.24182 7.10862 4.96435 9.75248 8.71173 11.3667C8.92568 11.4583 9.16299 11.4951 9.28329 11.5278C10.1363 11.5367 11.1358 10.7144 11.4246 9.89842C11.7023 9.11366 11.1152 8.80225 10.6505 8.42814Z" fill="white"/>
<path d="M6.45 0.763333C9.18979 1.18464 10.4532 2.48766 10.8024 5.24699C10.8344 5.50206 10.7398 5.88556 11.1032 5.89266C11.4834 5.89977 11.3918 5.52211 11.3951 5.26679C11.4271 2.66786 9.16111 0.258518 6.52919 0.169687C6.33072 0.198367 5.91981 0.0326376 5.89418 0.477806C5.87692 0.7778 6.2231 0.728562 6.45 0.763333Z" fill="white"/>
<path d="M6.98484 1.51992C6.72114 1.48845 6.37343 1.36409 6.31176 1.72982C6.24755 2.11357 6.63511 2.07474 6.88434 2.13032C8.57669 2.50848 9.16577 3.12446 9.44419 4.80311C9.48479 5.04777 9.40434 5.42873 9.82007 5.36553C10.1282 5.31858 10.017 4.99219 10.0427 4.80133C10.0566 3.18994 8.67542 1.72322 6.98484 1.51992Z" fill="white"/>
<path d="M7.14141 2.83791C6.96527 2.84223 6.79294 2.86126 6.72822 3.04933C6.63102 3.33003 6.83533 3.39729 7.04319 3.43054C7.73734 3.54221 8.10256 3.95134 8.17211 4.64346C8.19089 4.83152 8.30992 4.98355 8.49164 4.96223C8.7429 4.93229 8.76574 4.70843 8.75813 4.49574C8.77057 3.71809 7.89165 2.81913 7.14141 2.83791Z" fill="white"/>
</svg>
