<svg width="15" height="15" viewBox="0 0 15 15" fill="none" xmlns="http://www.w3.org/2000/svg">
<path d="M4.4551 12.3862C4.55177 12.4334 4.69172 12.5273 4.69172 12.5273C5.55922 13.0445 6.54622 13.3176 7.54503 13.3176C10.6277 13.3176 13.135 10.8096 13.135 7.72806C13.135 4.64564 10.6277 2.13763 7.54503 2.13763C4.46315 2.13763 1.95543 4.64564 1.95543 7.72806C1.95543 8.74598 2.23784 9.74783 2.77295 10.6262C2.77295 10.6262 2.86943 10.7667 2.91789 10.8641C3.18712 11.4051 1.95543 12.5273 2.35939 12.9483C2.71381 13.3176 3.91961 12.1248 4.4551 12.3862ZM0.516626 14.7907C0.17454 14.2671 1.51684 11.0574 1.51684 11.0574C0.950706 10.0353 0.652538 8.89018 0.652538 7.72806C0.652538 3.92752 3.74469 0.835416 7.54503 0.835416C11.3458 0.835416 14.4383 3.92752 14.4383 7.72806C14.4383 11.5287 11.3458 14.6208 7.54503 14.6208C6.40423 14.6208 5.27746 14.3319 4.26888 13.7853C4.26888 13.7853 0.858712 15.3143 0.516626 14.7907Z" fill="white"/>
<path fill-rule="evenodd" clip-rule="evenodd" d="M10.1089 8.68669C9.82574 8.51681 9.45642 8.32763 9.12238 8.46387C8.8655 8.56867 8.70217 8.97041 8.53557 9.17559C8.45021 9.28039 8.34844 9.29648 8.21795 9.24453C7.25524 8.86044 6.51741 8.21765 5.98682 7.33285C5.89679 7.19497 5.91312 7.08696 6.02088 6.95934C6.18174 6.77017 6.38282 6.55539 6.42714 6.30146C6.46982 6.04663 6.35081 5.74912 6.24494 5.52244C6.11116 5.23232 5.96089 4.81943 5.67076 4.65528C5.4037 4.5046 5.05227 4.58955 4.81475 4.78258C4.40472 5.11693 4.2066 5.64013 4.21234 6.15882C4.21431 6.3063 4.2322 6.45379 4.26684 6.59544C4.34957 6.93784 4.50764 7.25751 4.68557 7.56142C4.81984 7.79064 4.96576 8.01248 5.12318 8.2266C5.63769 8.92552 6.27859 9.533 7.0197 9.98735C7.39066 10.2143 7.78954 10.4137 8.20318 10.5499C8.66689 10.7032 9.07971 10.8626 9.57953 10.7673C10.104 10.668 10.6202 10.3441 10.8287 9.83921C10.8902 9.68919 10.9214 9.52242 10.8869 9.36476C10.8155 9.03836 10.3732 8.84443 10.1089 8.68669Z" fill="white"/>
</svg>
