<svg width="95" height="56" viewBox="0 0 95 56" fill="none" xmlns="http://www.w3.org/2000/svg">
<path d="M0.294224 53.3728C0.215764 53.3728 0 53.3728 0 53.3728C0 53.3728 0 53.157 0 53.0786V45.4287C0 45.3424 0 45.1345 0 45.1345C0 45.1345 0.215764 45.1345 0.294224 45.1345H1.56527C1.75357 45.1345 1.89088 45.2208 1.97718 45.3934L4.04852 49.1007L6.11985 45.3934C6.20616 45.2208 6.34346 45.1345 6.53176 45.1345H7.79104C7.87735 45.1345 8.09703 45.1345 8.09703 45.1345C8.09703 45.1345 8.09703 45.3424 8.09703 45.4287V53.0786C8.09703 53.1649 8.09703 53.3728 8.09703 53.3728C8.09703 53.3728 7.87735 53.3728 7.79104 53.3728H6.39054C6.30423 53.3728 6.08454 53.3728 6.08454 53.3728C6.08454 53.3728 6.08454 53.1649 6.08454 53.0786V48.6652L4.76642 51.1249C4.66442 51.3054 4.61328 51.3956 4.61328 51.3956H3.74252C3.64053 51.3956 3.48828 51.3956 3.48828 51.3956C3.48828 51.3956 3.37769 51.2112 3.33061 51.1249L2.00072 48.6652V53.0786C2.00072 53.157 2.00072 53.3728 2.00072 53.3728C2.00072 53.3728 1.7928 53.3728 1.7065 53.3728H0.294224Z" fill="black"/>
<path d="M0.294224 53.3728C0.215764 53.3728 0 53.3728 0 53.3728C0 53.3728 0 53.157 0 53.0786V45.4287C0 45.3424 0 45.1345 0 45.1345C0 45.1345 0.215764 45.1345 0.294224 45.1345H1.56527C1.75357 45.1345 1.89088 45.2208 1.97718 45.3934L4.04852 49.1007L6.11985 45.3934C6.20616 45.2208 6.34346 45.1345 6.53176 45.1345H7.79104C7.87735 45.1345 8.09703 45.1345 8.09703 45.1345C8.09703 45.1345 8.09703 45.3424 8.09703 45.4287V53.0786C8.09703 53.1649 8.09703 53.3728 8.09703 53.3728C8.09703 53.3728 7.87735 53.3728 7.79104 53.3728H6.39054C6.30423 53.3728 6.08454 53.3728 6.08454 53.3728C6.08454 53.3728 6.08454 53.1649 6.08454 53.0786V48.6652L4.76642 51.1249C4.66442 51.3054 4.61328 51.3956 4.61328 51.3956H3.74252C3.64053 51.3956 3.48828 51.3956 3.48828 51.3956C3.48828 51.3956 3.37769 51.2112 3.33061 51.1249L2.00072 48.6652V53.0786C2.00072 53.157 2.00072 53.3728 2.00072 53.3728C2.00072 53.3728 1.7928 53.3728 1.7065 53.3728H0.294224Z" fill="url(#paint0_linear_1_186)"/>
<path d="M15.9131 47.2529C15.9915 47.2529 16.1955 47.2529 16.1955 47.2529C16.1955 47.2529 16.1955 47.4569 16.1955 47.5354V53.0786C16.1955 53.157 16.1955 53.3728 16.1955 53.3728C16.1955 53.3728 15.9876 53.3728 15.9013 53.3728H14.5126C14.4341 53.3728 14.2184 53.3728 14.2184 53.3728C14.2184 53.3728 14.2184 53.157 14.2184 53.0786V49.7833L11.8293 53.1845C11.743 53.31 11.6331 53.3728 11.4997 53.3728H10.2522C10.1738 53.3728 9.96976 53.3728 9.96976 53.3728C9.96976 53.3728 9.96976 53.1688 9.96976 53.0903V47.5472C9.96976 47.4608 9.96976 47.2529 9.96976 47.2529C9.96976 47.2529 10.1777 47.2529 10.264 47.2529H11.6527C11.739 47.2529 11.9469 47.2529 11.9469 47.2529C11.9469 47.2529 11.9469 47.4608 11.9469 47.5472V50.8307L14.3243 47.4412C14.4106 47.3157 14.5204 47.2529 14.6538 47.2529H15.9131Z" fill="black"/>
<path d="M15.9131 47.2529C15.9915 47.2529 16.1955 47.2529 16.1955 47.2529C16.1955 47.2529 16.1955 47.4569 16.1955 47.5354V53.0786C16.1955 53.157 16.1955 53.3728 16.1955 53.3728C16.1955 53.3728 15.9876 53.3728 15.9013 53.3728H14.5126C14.4341 53.3728 14.2184 53.3728 14.2184 53.3728C14.2184 53.3728 14.2184 53.157 14.2184 53.0786V49.7833L11.8293 53.1845C11.743 53.31 11.6331 53.3728 11.4997 53.3728H10.2522C10.1738 53.3728 9.96976 53.3728 9.96976 53.3728C9.96976 53.3728 9.96976 53.1688 9.96976 53.0903V47.5472C9.96976 47.4608 9.96976 47.2529 9.96976 47.2529C9.96976 47.2529 10.1777 47.2529 10.264 47.2529H11.6527C11.739 47.2529 11.9469 47.2529 11.9469 47.2529C11.9469 47.2529 11.9469 47.4608 11.9469 47.5472V50.8307L14.3243 47.4412C14.4106 47.3157 14.5204 47.2529 14.6538 47.2529H15.9131Z" fill="url(#paint1_linear_1_186)"/>
<path d="M18.1221 55.6089C18.0436 55.6089 17.8278 55.6089 17.8278 55.6089C17.8278 55.6089 17.8278 55.401 17.8278 55.3147V47.5472C17.8278 47.4608 17.8278 47.2529 17.8278 47.2529C17.8278 47.2529 18.0436 47.2529 18.1221 47.2529H19.4519C19.5382 47.2529 19.7462 47.2529 19.7462 47.2529C19.7462 47.2529 19.7462 47.4608 19.7462 47.5472V47.9708C20.1698 47.4138 20.7779 47.1352 21.5704 47.1352C22.3393 47.1352 22.9395 47.3745 23.371 47.8531C23.8025 48.3318 24.0379 49.0065 24.0771 49.8774C24.085 49.9794 24.0889 50.1246 24.0889 50.3129C24.0889 50.5012 24.085 50.6463 24.0771 50.7483C24.0458 51.5957 23.8104 52.2665 23.371 52.7608C22.9316 53.2472 22.3314 53.4905 21.5704 53.4905C20.8015 53.4905 20.2287 53.2276 19.8521 52.702V55.3147C19.8521 55.401 19.8521 55.6089 19.8521 55.6089C19.8521 55.6089 19.6442 55.6089 19.5579 55.6089H18.1221ZM20.9348 51.9134C21.3036 51.9134 21.5664 51.8036 21.7234 51.5839C21.8881 51.3642 21.9823 51.0621 22.0058 50.6777C22.0215 50.5208 22.0293 50.3992 22.0293 50.3129C22.0293 50.2266 22.0215 50.1049 22.0058 49.948C21.9823 49.5636 21.8881 49.2615 21.7234 49.0418C21.5664 48.8221 21.3036 48.7123 20.9348 48.7123C20.5739 48.7123 20.3072 48.826 20.1345 49.0536C19.9698 49.2733 19.8756 49.5596 19.8521 49.9127L19.8403 50.3482L19.8521 50.7954C19.8678 51.1171 19.9659 51.3838 20.1463 51.5957C20.3268 51.8075 20.5896 51.9134 20.9348 51.9134Z" fill="black"/>
<path d="M18.1221 55.6089C18.0436 55.6089 17.8278 55.6089 17.8278 55.6089C17.8278 55.6089 17.8278 55.401 17.8278 55.3147V47.5472C17.8278 47.4608 17.8278 47.2529 17.8278 47.2529C17.8278 47.2529 18.0436 47.2529 18.1221 47.2529H19.4519C19.5382 47.2529 19.7462 47.2529 19.7462 47.2529C19.7462 47.2529 19.7462 47.4608 19.7462 47.5472V47.9708C20.1698 47.4138 20.7779 47.1352 21.5704 47.1352C22.3393 47.1352 22.9395 47.3745 23.371 47.8531C23.8025 48.3318 24.0379 49.0065 24.0771 49.8774C24.085 49.9794 24.0889 50.1246 24.0889 50.3129C24.0889 50.5012 24.085 50.6463 24.0771 50.7483C24.0458 51.5957 23.8104 52.2665 23.371 52.7608C22.9316 53.2472 22.3314 53.4905 21.5704 53.4905C20.8015 53.4905 20.2287 53.2276 19.8521 52.702V55.3147C19.8521 55.401 19.8521 55.6089 19.8521 55.6089C19.8521 55.6089 19.6442 55.6089 19.5579 55.6089H18.1221ZM20.9348 51.9134C21.3036 51.9134 21.5664 51.8036 21.7234 51.5839C21.8881 51.3642 21.9823 51.0621 22.0058 50.6777C22.0215 50.5208 22.0293 50.3992 22.0293 50.3129C22.0293 50.2266 22.0215 50.1049 22.0058 49.948C21.9823 49.5636 21.8881 49.2615 21.7234 49.0418C21.5664 48.8221 21.3036 48.7123 20.9348 48.7123C20.5739 48.7123 20.3072 48.826 20.1345 49.0536C19.9698 49.2733 19.8756 49.5596 19.8521 49.9127L19.8403 50.3482L19.8521 50.7954C19.8678 51.1171 19.9659 51.3838 20.1463 51.5957C20.3268 51.8075 20.5896 51.9134 20.9348 51.9134Z" fill="url(#paint2_linear_1_186)"/>
<path d="M34.6309 52.9844C34.6623 53.0158 34.678 53.0668 34.678 53.1374C34.678 53.2002 34.6545 53.2551 34.6074 53.3022C34.5603 53.3492 34.4976 53.3728 34.4191 53.3728H32.7597C32.6185 53.3728 32.5047 53.31 32.4184 53.1845L31.0414 51.0425H30.4177V53.0786C30.4177 53.1649 30.4177 53.3728 30.4177 53.3728C30.4177 53.3728 30.198 53.3728 30.1117 53.3728H28.7582C28.6719 53.3728 28.464 53.3728 28.464 53.3728C28.464 53.3728 28.464 53.1649 28.464 53.0786V47.5472C28.464 47.4608 28.464 47.2529 28.464 47.2529C28.464 47.2529 28.6719 47.2529 28.7582 47.2529H30.1117C30.198 47.2529 30.4177 47.2529 30.4177 47.2529C30.4177 47.2529 30.4177 47.4608 30.4177 47.5472V49.5008H31.0649L32.3242 47.4412C32.4105 47.3157 32.5204 47.2529 32.6538 47.2529H34.1602C34.2308 47.2529 34.3367 47.3235 34.3367 47.3235C34.3367 47.3235 34.4191 47.4255 34.4191 47.4883C34.4191 47.5432 34.3995 47.5982 34.3603 47.6531L32.7597 50.2187L34.6309 52.9844Z" fill="black"/>
<path d="M34.6309 52.9844C34.6623 53.0158 34.678 53.0668 34.678 53.1374C34.678 53.2002 34.6545 53.2551 34.6074 53.3022C34.5603 53.3492 34.4976 53.3728 34.4191 53.3728H32.7597C32.6185 53.3728 32.5047 53.31 32.4184 53.1845L31.0414 51.0425H30.4177V53.0786C30.4177 53.1649 30.4177 53.3728 30.4177 53.3728C30.4177 53.3728 30.198 53.3728 30.1117 53.3728H28.7582C28.6719 53.3728 28.464 53.3728 28.464 53.3728C28.464 53.3728 28.464 53.1649 28.464 53.0786V47.5472C28.464 47.4608 28.464 47.2529 28.464 47.2529C28.464 47.2529 28.6719 47.2529 28.7582 47.2529H30.1117C30.198 47.2529 30.4177 47.2529 30.4177 47.2529C30.4177 47.2529 30.4177 47.4608 30.4177 47.5472V49.5008H31.0649L32.3242 47.4412C32.4105 47.3157 32.5204 47.2529 32.6538 47.2529H34.1602C34.2308 47.2529 34.3367 47.3235 34.3367 47.3235C34.3367 47.3235 34.4191 47.4255 34.4191 47.4883C34.4191 47.5432 34.3995 47.5982 34.3603 47.6531L32.7597 50.2187L34.6309 52.9844Z" fill="url(#paint3_linear_1_186)"/>
<path d="M38.5851 53.4905C37.6122 53.4905 36.8629 53.259 36.3372 52.7961C35.8116 52.3332 35.5252 51.682 35.4781 50.8425C35.4703 50.7405 35.4663 50.5639 35.4663 50.3129C35.4663 50.0618 35.4703 49.8853 35.4781 49.7833C35.5252 48.9516 35.8194 48.3043 36.3608 47.8414C36.9022 47.3706 37.6436 47.1352 38.5851 47.1352C39.5345 47.1352 40.2799 47.3706 40.8212 47.8414C41.3626 48.3043 41.6568 48.9516 41.7039 49.7833C41.7117 49.8853 41.7157 50.0618 41.7157 50.3129C41.7157 50.5639 41.7117 50.7405 41.7039 50.8425C41.6568 51.682 41.3704 52.3332 40.8448 52.7961C40.3191 53.259 39.5659 53.4905 38.5851 53.4905ZM38.5851 52.0547C38.9303 52.0547 39.1853 51.9527 39.3501 51.7487C39.5149 51.5368 39.609 51.2151 39.6326 50.7836C39.6404 50.7052 39.6443 50.5482 39.6443 50.3129C39.6443 50.0775 39.6404 49.9206 39.6326 49.8421C39.609 49.4184 39.5109 49.1007 39.3383 48.8888C39.1736 48.677 38.9225 48.5711 38.5851 48.5711C37.9339 48.5711 37.5887 48.9947 37.5494 49.8421L37.5377 50.3129L37.5494 50.7836C37.5651 51.2151 37.6554 51.5368 37.8201 51.7487C37.9927 51.9527 38.2477 52.0547 38.5851 52.0547Z" fill="black"/>
<path d="M38.5851 53.4905C37.6122 53.4905 36.8629 53.259 36.3372 52.7961C35.8116 52.3332 35.5252 51.682 35.4781 50.8425C35.4703 50.7405 35.4663 50.5639 35.4663 50.3129C35.4663 50.0618 35.4703 49.8853 35.4781 49.7833C35.5252 48.9516 35.8194 48.3043 36.3608 47.8414C36.9022 47.3706 37.6436 47.1352 38.5851 47.1352C39.5345 47.1352 40.2799 47.3706 40.8212 47.8414C41.3626 48.3043 41.6568 48.9516 41.7039 49.7833C41.7117 49.8853 41.7157 50.0618 41.7157 50.3129C41.7157 50.5639 41.7117 50.7405 41.7039 50.8425C41.6568 51.682 41.3704 52.3332 40.8448 52.7961C40.3191 53.259 39.5659 53.4905 38.5851 53.4905ZM38.5851 52.0547C38.9303 52.0547 39.1853 51.9527 39.3501 51.7487C39.5149 51.5368 39.609 51.2151 39.6326 50.7836C39.6404 50.7052 39.6443 50.5482 39.6443 50.3129C39.6443 50.0775 39.6404 49.9206 39.6326 49.8421C39.609 49.4184 39.5109 49.1007 39.3383 48.8888C39.1736 48.677 38.9225 48.5711 38.5851 48.5711C37.9339 48.5711 37.5887 48.9947 37.5494 49.8421L37.5377 50.3129L37.5494 50.7836C37.5651 51.2151 37.6554 51.5368 37.8201 51.7487C37.9927 51.9527 38.2477 52.0547 38.5851 52.0547Z" fill="url(#paint4_linear_1_186)"/>
<path d="M43.5319 53.3728C43.4456 53.3728 43.2377 53.3728 43.2377 53.3728C43.2377 53.3728 43.2377 53.1649 43.2377 53.0786V47.5472C43.2377 47.4608 43.2377 47.2529 43.2377 47.2529C43.2377 47.2529 43.4456 47.2529 43.5319 47.2529H46.2859C47.1882 47.2529 47.859 47.4059 48.2984 47.7119C48.7456 48.0179 48.9692 48.4455 48.9692 48.9947C48.9692 49.2772 48.9143 49.5165 48.8044 49.7126C48.6946 49.9009 48.5337 50.0618 48.3219 50.1952C48.5808 50.3285 48.7848 50.5129 48.9339 50.7483C49.083 50.9837 49.1575 51.2544 49.1575 51.5604C49.1575 52.141 48.9339 52.5882 48.4867 52.902C48.0394 53.2159 47.3647 53.3728 46.4624 53.3728H43.5319ZM46.3212 49.642C46.5722 49.642 46.7684 49.595 46.9096 49.5008C47.0508 49.3988 47.1215 49.2497 47.1215 49.0536C47.1215 48.6927 46.8547 48.5122 46.3212 48.5122H45.1443V49.642H46.3212ZM46.3447 52.1135C46.8861 52.1135 47.1568 51.9213 47.1568 51.5368C47.1568 51.3328 47.0901 51.1877 46.9567 51.1014C46.8233 51.0072 46.6193 50.9601 46.3447 50.9601H45.1443V52.1135H46.3447Z" fill="black"/>
<path d="M43.5319 53.3728C43.4456 53.3728 43.2377 53.3728 43.2377 53.3728C43.2377 53.3728 43.2377 53.1649 43.2377 53.0786V47.5472C43.2377 47.4608 43.2377 47.2529 43.2377 47.2529C43.2377 47.2529 43.4456 47.2529 43.5319 47.2529H46.2859C47.1882 47.2529 47.859 47.4059 48.2984 47.7119C48.7456 48.0179 48.9692 48.4455 48.9692 48.9947C48.9692 49.2772 48.9143 49.5165 48.8044 49.7126C48.6946 49.9009 48.5337 50.0618 48.3219 50.1952C48.5808 50.3285 48.7848 50.5129 48.9339 50.7483C49.083 50.9837 49.1575 51.2544 49.1575 51.5604C49.1575 52.141 48.9339 52.5882 48.4867 52.902C48.0394 53.2159 47.3647 53.3728 46.4624 53.3728H43.5319ZM46.3212 49.642C46.5722 49.642 46.7684 49.595 46.9096 49.5008C47.0508 49.3988 47.1215 49.2497 47.1215 49.0536C47.1215 48.6927 46.8547 48.5122 46.3212 48.5122H45.1443V49.642H46.3212ZM46.3447 52.1135C46.8861 52.1135 47.1568 51.9213 47.1568 51.5368C47.1568 51.3328 47.0901 51.1877 46.9567 51.1014C46.8233 51.0072 46.6193 50.9601 46.3447 50.9601H45.1443V52.1135H46.3447Z" fill="url(#paint5_linear_1_186)"/>
<path d="M51.0222 55.6089C50.9438 55.6089 50.728 55.6089 50.728 55.6089C50.728 55.6089 50.728 55.401 50.728 55.3147V47.5472C50.728 47.4608 50.728 47.2529 50.728 47.2529C50.728 47.2529 50.9438 47.2529 51.0222 47.2529H52.3521C52.4384 47.2529 52.6463 47.2529 52.6463 47.2529C52.6463 47.2529 52.6463 47.4608 52.6463 47.5472V47.9708C53.07 47.4138 53.6781 47.1352 54.4705 47.1352C55.2394 47.1352 55.8396 47.3745 56.2712 47.8531C56.7027 48.3318 56.9381 49.0065 56.9773 49.8774C56.9852 49.9794 56.9891 50.1246 56.9891 50.3129C56.9891 50.5012 56.9852 50.6463 56.9773 50.7483C56.9459 51.5957 56.7105 52.2665 56.2712 52.7608C55.8318 53.2472 55.2316 53.4905 54.4705 53.4905C53.7016 53.4905 53.1289 53.2276 52.7523 52.702V55.3147C52.7523 55.401 52.7523 55.6089 52.7523 55.6089C52.7523 55.6089 52.5443 55.6089 52.458 55.6089H51.0222ZM53.835 51.9134C54.2038 51.9134 54.4666 51.8036 54.6235 51.5839C54.7883 51.3642 54.8824 51.0621 54.906 50.6777C54.9217 50.5208 54.9295 50.3992 54.9295 50.3129C54.9295 50.2266 54.9217 50.1049 54.906 49.948C54.8824 49.5636 54.7883 49.2615 54.6235 49.0418C54.4666 48.8221 54.2038 48.7123 53.835 48.7123C53.4741 48.7123 53.2073 48.826 53.0347 49.0536C52.8699 49.2733 52.7758 49.5596 52.7523 49.9127L52.7405 50.3482L52.7523 50.7954C52.768 51.1171 52.866 51.3838 53.0465 51.5957C53.2269 51.8075 53.4898 51.9134 53.835 51.9134Z" fill="black"/>
<path d="M51.0222 55.6089C50.9438 55.6089 50.728 55.6089 50.728 55.6089C50.728 55.6089 50.728 55.401 50.728 55.3147V47.5472C50.728 47.4608 50.728 47.2529 50.728 47.2529C50.728 47.2529 50.9438 47.2529 51.0222 47.2529H52.3521C52.4384 47.2529 52.6463 47.2529 52.6463 47.2529C52.6463 47.2529 52.6463 47.4608 52.6463 47.5472V47.9708C53.07 47.4138 53.6781 47.1352 54.4705 47.1352C55.2394 47.1352 55.8396 47.3745 56.2712 47.8531C56.7027 48.3318 56.9381 49.0065 56.9773 49.8774C56.9852 49.9794 56.9891 50.1246 56.9891 50.3129C56.9891 50.5012 56.9852 50.6463 56.9773 50.7483C56.9459 51.5957 56.7105 52.2665 56.2712 52.7608C55.8318 53.2472 55.2316 53.4905 54.4705 53.4905C53.7016 53.4905 53.1289 53.2276 52.7523 52.702V55.3147C52.7523 55.401 52.7523 55.6089 52.7523 55.6089C52.7523 55.6089 52.5443 55.6089 52.458 55.6089H51.0222ZM53.835 51.9134C54.2038 51.9134 54.4666 51.8036 54.6235 51.5839C54.7883 51.3642 54.8824 51.0621 54.906 50.6777C54.9217 50.5208 54.9295 50.3992 54.9295 50.3129C54.9295 50.2266 54.9217 50.1049 54.906 49.948C54.8824 49.5636 54.7883 49.2615 54.6235 49.0418C54.4666 48.8221 54.2038 48.7123 53.835 48.7123C53.4741 48.7123 53.2073 48.826 53.0347 49.0536C52.8699 49.2733 52.7758 49.5596 52.7523 49.9127L52.7405 50.3482L52.7523 50.7954C52.768 51.1171 52.866 51.3838 53.0465 51.5957C53.2269 51.8075 53.4898 51.9134 53.835 51.9134Z" fill="url(#paint6_linear_1_186)"/>
<path d="M61.4008 53.4905C60.4279 53.4905 59.6786 53.259 59.1529 52.7961C58.6272 52.3332 58.3409 51.682 58.2938 50.8425C58.2859 50.7405 58.282 50.5639 58.282 50.3129C58.282 50.0618 58.2859 49.8853 58.2938 49.7833C58.3409 48.9516 58.6351 48.3043 59.1764 47.8414C59.7178 47.3706 60.4593 47.1352 61.4008 47.1352C62.3501 47.1352 63.0955 47.3706 63.6369 47.8414C64.1783 48.3043 64.4725 48.9516 64.5195 49.7833C64.5274 49.8853 64.5313 50.0618 64.5313 50.3129C64.5313 50.5639 64.5274 50.7405 64.5195 50.8425C64.4725 51.682 64.1861 52.3332 63.6604 52.7961C63.1347 53.259 62.3815 53.4905 61.4008 53.4905ZM61.4008 52.0547C61.746 52.0547 62.001 51.9527 62.1658 51.7487C62.3305 51.5368 62.4247 51.2151 62.4482 50.7836C62.4561 50.7052 62.46 50.5482 62.46 50.3129C62.46 50.0775 62.4561 49.9206 62.4482 49.8421C62.4247 49.4184 62.3266 49.1007 62.154 48.8888C61.9892 48.677 61.7382 48.5711 61.4008 48.5711C60.7496 48.5711 60.4043 48.9947 60.3651 49.8421L60.3533 50.3129L60.3651 50.7836C60.3808 51.2151 60.471 51.5368 60.6358 51.7487C60.8084 51.9527 61.0634 52.0547 61.4008 52.0547Z" fill="black"/>
<path d="M61.4008 53.4905C60.4279 53.4905 59.6786 53.259 59.1529 52.7961C58.6272 52.3332 58.3409 51.682 58.2938 50.8425C58.2859 50.7405 58.282 50.5639 58.282 50.3129C58.282 50.0618 58.2859 49.8853 58.2938 49.7833C58.3409 48.9516 58.6351 48.3043 59.1764 47.8414C59.7178 47.3706 60.4593 47.1352 61.4008 47.1352C62.3501 47.1352 63.0955 47.3706 63.6369 47.8414C64.1783 48.3043 64.4725 48.9516 64.5195 49.7833C64.5274 49.8853 64.5313 50.0618 64.5313 50.3129C64.5313 50.5639 64.5274 50.7405 64.5195 50.8425C64.4725 51.682 64.1861 52.3332 63.6604 52.7961C63.1347 53.259 62.3815 53.4905 61.4008 53.4905ZM61.4008 52.0547C61.746 52.0547 62.001 51.9527 62.1658 51.7487C62.3305 51.5368 62.4247 51.2151 62.4482 50.7836C62.4561 50.7052 62.46 50.5482 62.46 50.3129C62.46 50.0775 62.4561 49.9206 62.4482 49.8421C62.4247 49.4184 62.3266 49.1007 62.154 48.8888C61.9892 48.677 61.7382 48.5711 61.4008 48.5711C60.7496 48.5711 60.4043 48.9947 60.3651 49.8421L60.3533 50.3129L60.3651 50.7836C60.3808 51.2151 60.471 51.5368 60.6358 51.7487C60.8084 51.9527 61.0634 52.0547 61.4008 52.0547Z" fill="url(#paint7_linear_1_186)"/>
<path d="M65.8673 53.3728C65.781 53.3728 65.5613 53.3728 65.5613 53.3728C65.5613 53.3728 65.5613 53.1531 65.5613 53.0668V52.0429C65.5613 51.9644 65.5613 51.7487 65.5613 51.7487C65.5613 51.7487 65.7574 51.7644 65.8437 51.7487C66.0713 51.7251 66.2439 51.6231 66.3616 51.4427C66.4793 51.2544 66.5616 50.9837 66.6087 50.6306C66.6558 50.2775 66.6793 49.8029 66.6793 49.2066V47.5472C66.6793 47.4608 66.6793 47.2529 66.6793 47.2529C66.6793 47.2529 66.8951 47.2529 66.9735 47.2529H71.587C71.6733 47.2529 71.893 47.2529 71.893 47.2529C71.893 47.2529 71.893 47.4608 71.893 47.5472V53.0786C71.893 53.1649 71.893 53.3728 71.893 53.3728C71.893 53.3728 71.6733 53.3728 71.587 53.3728H70.1982C70.1198 53.3728 69.904 53.3728 69.904 53.3728C69.904 53.3728 69.904 53.157 69.904 53.0786V48.7947H68.5624V49.4184C68.5624 50.4462 68.4839 51.2426 68.327 51.8075C68.1701 52.3646 67.8994 52.7647 67.5149 53.0079C67.1383 53.2512 66.5891 53.3728 65.8673 53.3728Z" fill="black"/>
<path d="M65.8673 53.3728C65.781 53.3728 65.5613 53.3728 65.5613 53.3728C65.5613 53.3728 65.5613 53.1531 65.5613 53.0668V52.0429C65.5613 51.9644 65.5613 51.7487 65.5613 51.7487C65.5613 51.7487 65.7574 51.7644 65.8437 51.7487C66.0713 51.7251 66.2439 51.6231 66.3616 51.4427C66.4793 51.2544 66.5616 50.9837 66.6087 50.6306C66.6558 50.2775 66.6793 49.8029 66.6793 49.2066V47.5472C66.6793 47.4608 66.6793 47.2529 66.6793 47.2529C66.6793 47.2529 66.8951 47.2529 66.9735 47.2529H71.587C71.6733 47.2529 71.893 47.2529 71.893 47.2529C71.893 47.2529 71.893 47.4608 71.893 47.5472V53.0786C71.893 53.1649 71.893 53.3728 71.893 53.3728C71.893 53.3728 71.6733 53.3728 71.587 53.3728H70.1982C70.1198 53.3728 69.904 53.3728 69.904 53.3728C69.904 53.3728 69.904 53.157 69.904 53.0786V48.7947H68.5624V49.4184C68.5624 50.4462 68.4839 51.2426 68.327 51.8075C68.1701 52.3646 67.8994 52.7647 67.5149 53.0079C67.1383 53.2512 66.5891 53.3728 65.8673 53.3728Z" fill="url(#paint8_linear_1_186)"/>
<path d="M79.6134 47.2529C79.6919 47.2529 79.8959 47.2529 79.8959 47.2529C79.8959 47.2529 79.8959 47.4569 79.8959 47.5354V53.0786C79.8959 53.157 79.8959 53.3728 79.8959 53.3728C79.8959 53.3728 79.6879 53.3728 79.6016 53.3728H78.2129C78.1344 53.3728 77.9187 53.3728 77.9187 53.3728C77.9187 53.3728 77.9187 53.157 77.9187 53.0786V49.7833L75.5296 53.1845C75.4433 53.31 75.3334 53.3728 75.2 53.3728H73.9525C73.8741 53.3728 73.6701 53.3728 73.6701 53.3728C73.6701 53.3728 73.6701 53.1688 73.6701 53.0903V47.5472C73.6701 47.4608 73.6701 47.2529 73.6701 47.2529C73.6701 47.2529 73.878 47.2529 73.9643 47.2529H75.353C75.4393 47.2529 75.6473 47.2529 75.6473 47.2529C75.6473 47.2529 75.6473 47.4608 75.6473 47.5472V50.8307L78.0246 47.4412C78.1109 47.3157 78.2207 47.2529 78.3541 47.2529H79.6134Z" fill="black"/>
<path d="M79.6134 47.2529C79.6919 47.2529 79.8959 47.2529 79.8959 47.2529C79.8959 47.2529 79.8959 47.4569 79.8959 47.5354V53.0786C79.8959 53.157 79.8959 53.3728 79.8959 53.3728C79.8959 53.3728 79.6879 53.3728 79.6016 53.3728H78.2129C78.1344 53.3728 77.9187 53.3728 77.9187 53.3728C77.9187 53.3728 77.9187 53.157 77.9187 53.0786V49.7833L75.5296 53.1845C75.4433 53.31 75.3334 53.3728 75.2 53.3728H73.9525C73.8741 53.3728 73.6701 53.3728 73.6701 53.3728C73.6701 53.3728 73.6701 53.1688 73.6701 53.0903V47.5472C73.6701 47.4608 73.6701 47.2529 73.6701 47.2529C73.6701 47.2529 73.878 47.2529 73.9643 47.2529H75.353C75.4393 47.2529 75.6473 47.2529 75.6473 47.2529C75.6473 47.2529 75.6473 47.4608 75.6473 47.5472V50.8307L78.0246 47.4412C78.1109 47.3157 78.2207 47.2529 78.3541 47.2529H79.6134Z" fill="url(#paint9_linear_1_186)"/>
<path d="M81.8224 53.3728C81.7361 53.3728 81.5282 53.3728 81.5282 53.3728C81.5282 53.3728 81.5282 53.1649 81.5282 53.0786V47.5472C81.5282 47.4608 81.5282 47.2529 81.5282 47.2529C81.5282 47.2529 81.7361 47.2529 81.8224 47.2529H83.2111C83.2974 47.2529 83.5053 47.2529 83.5053 47.2529C83.5053 47.2529 83.5053 47.4608 83.5053 47.5472V49.5008H85.6237V47.5472C85.6237 47.4608 85.6237 47.2529 85.6237 47.2529C85.6237 47.2529 85.8317 47.2529 85.918 47.2529H87.3067C87.393 47.2529 87.6009 47.2529 87.6009 47.2529C87.6009 47.2529 87.6009 47.4608 87.6009 47.5472V53.0786C87.6009 53.157 87.6009 53.3728 87.6009 53.3728C87.6009 53.3728 87.393 53.3728 87.3067 53.3728H85.918C85.8317 53.3728 85.6237 53.3728 85.6237 53.3728C85.6237 53.3728 85.6237 53.1649 85.6237 53.0786V51.0425H83.5053V53.0786C83.5053 53.157 83.5053 53.3728 83.5053 53.3728C83.5053 53.3728 83.2974 53.3728 83.2111 53.3728H81.8224Z" fill="black"/>
<path d="M81.8224 53.3728C81.7361 53.3728 81.5282 53.3728 81.5282 53.3728C81.5282 53.3728 81.5282 53.1649 81.5282 53.0786V47.5472C81.5282 47.4608 81.5282 47.2529 81.5282 47.2529C81.5282 47.2529 81.7361 47.2529 81.8224 47.2529H83.2111C83.2974 47.2529 83.5053 47.2529 83.5053 47.2529C83.5053 47.2529 83.5053 47.4608 83.5053 47.5472V49.5008H85.6237V47.5472C85.6237 47.4608 85.6237 47.2529 85.6237 47.2529C85.6237 47.2529 85.8317 47.2529 85.918 47.2529H87.3067C87.393 47.2529 87.6009 47.2529 87.6009 47.2529C87.6009 47.2529 87.6009 47.4608 87.6009 47.5472V53.0786C87.6009 53.157 87.6009 53.3728 87.6009 53.3728C87.6009 53.3728 87.393 53.3728 87.3067 53.3728H85.918C85.8317 53.3728 85.6237 53.3728 85.6237 53.3728C85.6237 53.3728 85.6237 53.1649 85.6237 53.0786V51.0425H83.5053V53.0786C83.5053 53.157 83.5053 53.3728 83.5053 53.3728C83.5053 53.3728 83.2974 53.3728 83.2111 53.3728H81.8224Z" fill="url(#paint10_linear_1_186)"/>
<path d="M91.2222 53.4905C90.8063 53.4905 90.4258 53.412 90.0806 53.2551C89.7432 53.0903 89.4764 52.8706 89.2803 52.596C89.092 52.3136 88.9978 52.0037 88.9978 51.6663C88.9978 51.1249 89.2175 50.6895 89.6569 50.3599C90.1041 50.0304 90.7161 49.8029 91.4929 49.6773L92.964 49.4537V49.289C92.964 48.9908 92.9012 48.7711 92.7757 48.6299C92.6501 48.4887 92.4383 48.4181 92.1402 48.4181C91.9597 48.4181 91.8106 48.4494 91.6929 48.5122C91.5752 48.575 91.4536 48.6613 91.3281 48.7711C91.2182 48.8653 91.1406 48.949 91.1406 48.949C91.1406 48.949 91.0143 49.0536 90.9515 49.0536H89.6687C89.5902 49.0536 89.4098 49.0536 89.4098 49.0536C89.4098 49.0536 89.4019 48.8653 89.4098 48.7947C89.4176 48.5828 89.5196 48.3474 89.7157 48.0885C89.9197 47.8296 90.2257 47.606 90.6337 47.4177C91.0496 47.2294 91.5595 47.1352 92.1637 47.1352C93.1287 47.1352 93.8427 47.351 94.3056 47.7825C94.7685 48.2062 95 48.779 95 49.5008V53.0786C95 53.157 95 53.3728 95 53.3728C95 53.3728 94.7921 53.3728 94.7058 53.3728H93.3406C93.2621 53.3728 93.0464 53.3728 93.0464 53.3728C93.0464 53.3728 93.0464 53.157 93.0464 53.0786V52.6666C92.8737 52.9099 92.6305 53.1099 92.3167 53.2669C92.0107 53.4159 91.6459 53.4905 91.2222 53.4905ZM91.7753 52.1488C92.1362 52.1488 92.4265 52.0311 92.6462 51.7957C92.8737 51.5604 92.9875 51.2151 92.9875 50.7601V50.5953L91.9871 50.7718C91.281 50.8974 90.9279 51.1445 90.9279 51.5133C90.9279 51.7094 91.0103 51.8664 91.1751 51.984C91.3399 52.0939 91.5399 52.1488 91.7753 52.1488Z" fill="black"/>
<path d="M91.2222 53.4905C90.8063 53.4905 90.4258 53.412 90.0806 53.2551C89.7432 53.0903 89.4764 52.8706 89.2803 52.596C89.092 52.3136 88.9978 52.0037 88.9978 51.6663C88.9978 51.1249 89.2175 50.6895 89.6569 50.3599C90.1041 50.0304 90.7161 49.8029 91.4929 49.6773L92.964 49.4537V49.289C92.964 48.9908 92.9012 48.7711 92.7757 48.6299C92.6501 48.4887 92.4383 48.4181 92.1402 48.4181C91.9597 48.4181 91.8106 48.4494 91.6929 48.5122C91.5752 48.575 91.4536 48.6613 91.3281 48.7711C91.2182 48.8653 91.1406 48.949 91.1406 48.949C91.1406 48.949 91.0143 49.0536 90.9515 49.0536H89.6687C89.5902 49.0536 89.4098 49.0536 89.4098 49.0536C89.4098 49.0536 89.4019 48.8653 89.4098 48.7947C89.4176 48.5828 89.5196 48.3474 89.7157 48.0885C89.9197 47.8296 90.2257 47.606 90.6337 47.4177C91.0496 47.2294 91.5595 47.1352 92.1637 47.1352C93.1287 47.1352 93.8427 47.351 94.3056 47.7825C94.7685 48.2062 95 48.779 95 49.5008V53.0786C95 53.157 95 53.3728 95 53.3728C95 53.3728 94.7921 53.3728 94.7058 53.3728H93.3406C93.2621 53.3728 93.0464 53.3728 93.0464 53.3728C93.0464 53.3728 93.0464 53.157 93.0464 53.0786V52.6666C92.8737 52.9099 92.6305 53.1099 92.3167 53.2669C92.0107 53.4159 91.6459 53.4905 91.2222 53.4905ZM91.7753 52.1488C92.1362 52.1488 92.4265 52.0311 92.6462 51.7957C92.8737 51.5604 92.9875 51.2151 92.9875 50.7601V50.5953L91.9871 50.7718C91.281 50.8974 90.9279 51.1445 90.9279 51.5133C90.9279 51.7094 91.0103 51.8664 91.1751 51.984C91.3399 52.0939 91.5399 52.1488 91.7753 52.1488Z" fill="url(#paint11_linear_1_186)"/>
<path d="M78.7208 25.1856L81.9746 16.0284H95L87.1143 38.2215H85.1716L78.7208 25.1856Z" fill="url(#paint12_linear_1_186)"/>
<path d="M65.9016 0L78.7284 25.1857L85.1792 38.2215H71.587L58.5437 12.6107L52.418 0H65.9016Z" fill="url(#paint13_linear_1_186)"/>
<path d="M0 38.2215L15.7538 0H29.4851L23.409 13.641L13.2776 38.2215H0Z" fill="url(#paint14_linear_1_186)"/>
<path d="M40.9926 24.087L52.4183 0L58.544 12.6107L48.716 38.2215L40.9926 24.087Z" fill="url(#paint15_linear_1_186)"/>
<path d="M29.4855 0L40.9926 24.087L48.716 38.2215H33.5408L23.4094 13.641L29.4855 0Z" fill="url(#paint16_linear_1_186)"/>
<defs>
<linearGradient id="paint0_linear_1_186" x1="95" y1="45.1345" x2="93.9084" y2="61.7706" gradientUnits="userSpaceOnUse">
<stop stop-color="#730000"/>
<stop offset="1" stop-color="#CC0000"/>
</linearGradient>
<linearGradient id="paint1_linear_1_186" x1="95" y1="45.1345" x2="93.9084" y2="61.7706" gradientUnits="userSpaceOnUse">
<stop stop-color="#730000"/>
<stop offset="1" stop-color="#CC0000"/>
</linearGradient>
<linearGradient id="paint2_linear_1_186" x1="95" y1="45.1345" x2="93.9084" y2="61.7706" gradientUnits="userSpaceOnUse">
<stop stop-color="#730000"/>
<stop offset="1" stop-color="#CC0000"/>
</linearGradient>
<linearGradient id="paint3_linear_1_186" x1="95" y1="45.1345" x2="93.9084" y2="61.7706" gradientUnits="userSpaceOnUse">
<stop stop-color="#730000"/>
<stop offset="1" stop-color="#CC0000"/>
</linearGradient>
<linearGradient id="paint4_linear_1_186" x1="95" y1="45.1345" x2="93.9084" y2="61.7706" gradientUnits="userSpaceOnUse">
<stop stop-color="#730000"/>
<stop offset="1" stop-color="#CC0000"/>
</linearGradient>
<linearGradient id="paint5_linear_1_186" x1="95" y1="45.1345" x2="93.9084" y2="61.7706" gradientUnits="userSpaceOnUse">
<stop stop-color="#730000"/>
<stop offset="1" stop-color="#CC0000"/>
</linearGradient>
<linearGradient id="paint6_linear_1_186" x1="95" y1="45.1345" x2="93.9084" y2="61.7706" gradientUnits="userSpaceOnUse">
<stop stop-color="#730000"/>
<stop offset="1" stop-color="#CC0000"/>
</linearGradient>
<linearGradient id="paint7_linear_1_186" x1="95" y1="45.1345" x2="93.9084" y2="61.7706" gradientUnits="userSpaceOnUse">
<stop stop-color="#730000"/>
<stop offset="1" stop-color="#CC0000"/>
</linearGradient>
<linearGradient id="paint8_linear_1_186" x1="95" y1="45.1345" x2="93.9084" y2="61.7706" gradientUnits="userSpaceOnUse">
<stop stop-color="#730000"/>
<stop offset="1" stop-color="#CC0000"/>
</linearGradient>
<linearGradient id="paint9_linear_1_186" x1="95" y1="45.1345" x2="93.9084" y2="61.7706" gradientUnits="userSpaceOnUse">
<stop stop-color="#730000"/>
<stop offset="1" stop-color="#CC0000"/>
</linearGradient>
<linearGradient id="paint10_linear_1_186" x1="95" y1="45.1345" x2="93.9084" y2="61.7706" gradientUnits="userSpaceOnUse">
<stop stop-color="#730000"/>
<stop offset="1" stop-color="#CC0000"/>
</linearGradient>
<linearGradient id="paint11_linear_1_186" x1="95" y1="45.1345" x2="93.9084" y2="61.7706" gradientUnits="userSpaceOnUse">
<stop stop-color="#730000"/>
<stop offset="1" stop-color="#CC0000"/>
</linearGradient>
<linearGradient id="paint12_linear_1_186" x1="95" y1="16.0284" x2="77.68" y2="37.3771" gradientUnits="userSpaceOnUse">
<stop stop-color="#730000"/>
<stop offset="1" stop-color="#CC0000"/>
</linearGradient>
<linearGradient id="paint13_linear_1_186" x1="85.1792" y1="0" x2="56.6181" y2="41.1375" gradientUnits="userSpaceOnUse">
<stop stop-color="#730000"/>
<stop offset="1" stop-color="#CC0000"/>
</linearGradient>
<linearGradient id="paint14_linear_1_186" x1="29.4851" y1="0" x2="1.48366e-06" y2="38.2215" gradientUnits="userSpaceOnUse">
<stop stop-color="#730000"/>
<stop offset="1" stop-color="#CC0000"/>
</linearGradient>
<linearGradient id="paint15_linear_1_186" x1="58.544" y1="0" x2="29.0569" y2="22.7535" gradientUnits="userSpaceOnUse">
<stop stop-color="#730000"/>
<stop offset="1" stop-color="#CC0000"/>
</linearGradient>
<linearGradient id="paint16_linear_1_186" x1="48.716" y1="0" x2="18.4051" y2="33.7236" gradientUnits="userSpaceOnUse">
<stop stop-color="#730000"/>
<stop offset="1" stop-color="#CC0000"/>
</linearGradient>
</defs>
</svg>
